<?xml version="1.0" encoding="utf-8"?>
<svg id="master-artboard" viewBox="0 0 60 63" version="1.1" xmlns="http://www.w3.org/2000/svg" x="0px" y="0px" style="enable-background:new 0 0 1400 980;" width="60px" height="63px"><rect id="ee-background" x="0" y="0" width="60" height="63" style="fill: white; fill-opacity: 0; pointer-events: none;"/>








































<g transform="matrix(0.4716981053352356, 0, 0, 0.47169816493988037, -278.7692336332442, -360.08344449222596)"><g id="Layer_2_43_" transform="matrix(1, 0, 0, 1, 0, 0)">
	<g id="Layer_1-2_41_">
		<g>
			<path class="st0" d="M654,884c-29.2,0-53-23.8-53-53s23.8-53,53-53s53,23.8,53,53S683.2,884,654,884z M654,784&#10;&#9;&#9;&#9;&#9;c-25.9,0-47,21.1-47,47s21.1,47,47,47s47-21.1,47-47S679.9,784,654,784z" style="fill: rgb(0, 173, 181); stroke: rgb(0, 173, 181); stroke-width: 11;"/>
		</g>
	</g>
</g></g><path d="M 282.505859375 503.94683837890625 C 281.1391906738281 503.94683837890625 280.08251953125 504.4635009765625 279.33587646484375 505.496826171875 C 278.58251953125 506.52349853515625 278.20587158203125 507.9534912109375 278.20587158203125 509.7868347167969 C 278.20587158203125 513.6068115234375 279.6391906738281 515.516845703125 282.505859375 515.516845703125 C 283.7125244140625 515.516845703125 285.169189453125 515.216796875 286.8758544921875 514.6168212890625 L 286.8758544921875 517.6668090820312 C 285.4758605957031 518.246826171875 283.9058532714844 518.5368041992188 282.1658630371094 518.5368041992188 C 279.67919921875 518.5368041992188 277.77587890625 517.7835083007812 276.45587158203125 516.2767944335938 C 275.12921142578125 514.7634887695312 274.46588134765625 512.593505859375 274.46588134765625 509.7668151855469 C 274.46588134765625 507.98681640625 274.79254150390625 506.42681884765625 275.44586181640625 505.0868225097656 C 276.092529296875 503.746826171875 277.02252197265625 502.7168273925781 278.2358703613281 501.996826171875 C 279.4491882324219 501.2834777832031 280.8725280761719 500.92681884765625 282.505859375 500.92681884765625 C 284.17254638671875 500.92681884765625 285.8458557128906 501.3301696777344 287.52587890625 502.1368103027344 L 286.3558654785156 505.0868225097656 C 285.71588134765625 504.7801513671875 285.0692138671875 504.51348876953125 284.4158630371094 504.2868347167969 C 283.7691955566406 504.0601501464844 283.1325378417969 503.94683837890625 282.505859375 503.94683837890625 Z" transform="matrix(1.3594920635223389, 0, 0, 1.3594920635223389, -354.1329650878906, -660.6685180664062)" style="fill: rgb(0, 173, 181); white-space: pre; color: rgb(51, 51, 51); stroke: rgb(0, 173, 181);"/></svg>